<svg
              width="476.45"
              height="111.06720040820313"
              viewBox="0 0 336.03899731105014 78.3354195808963"
              className="looka-1j8o68f"
            >
              <defs id="SvgjsDefs6870"></defs>
              <g
                id="SvgjsG6871"
                featurekey="5TMTKC-0"
                transform="matrix(1.6667110549126873,0,0,1.6667110549126873,-8.334755346705522,-15.000399494214186)"
                fill="#ffffff"
              >
                <g
                  xmlns="http://www.w3.org/2000/svg"
                  transform="translate(0,-988.36219)"
                >
                  <path
                    style="font-style:normal;font-variant:normal;font-weight:normal;font-stretch:normal;font-size:medium;line-height:normal;font-family:sans-serif;text-indent:0;text-align:start;text-decoration:none;text-decoration-line:none;text-decoration-style:solid;text-decoration-color:;letter-spacing:normal;word-spacing:normal;text-transform:none;direction:ltr;block-progression:tb;writing-mode:lr-tb;baseline-shift:baseline;text-anchor:start;white-space:normal;clip-rule:nonzero;display:inline;overflow:visible;visibility:visible;opacity:1;isolation:auto;mix-blend-mode:normal;color-interpolation:sRGB;color-interpolation-filters:linearRGB;solid-color:;solid-opacity:1;fill:#ffffff;fill-opacity:1;fill-rule:evenodd;stroke:none;stroke-width:1px;stroke-linecap:butt;stroke-linejoin:miter;stroke-miterlimit:4;stroke-dasharray:none;stroke-dashoffset:0;stroke-opacity:1;color-rendering:auto;image-rendering:auto;shape-rendering:auto;text-rendering:auto;enable-background:accumulate"
                    d="M 44 9 L 44 9.5 L 44 36 L 39 36 L 39 25 L 32 25 L 32 25.5 L 32 36 L 27 36 L 27 17 L 20 17 L 20 17.5 L 20 36 L 15 36 L 15 26 L 8 26 L 8 26.5 L 8 36 L 5.5078125 36 A 0.50005006 0.50005006 0 1 0 5.5078125 37 L 8 37 L 14 37 L 14 49 L 21 49 L 21 37 L 26 37 L 26 45 L 33 45 L 33 37 L 38 37 L 38 56 L 45 56 L 45 37 L 50 37 L 50 50 L 57 50 L 57 37 L 58.492188 37 A 0.50005006 0.50005006 0 1 0 58.492188 36 L 57 36 L 51 36 L 51 9 L 44 9 z M 45 10 L 50 10 L 50 36 L 45 36 L 45 10 z M 21 18 L 26 18 L 26 36 L 21 36 L 21 18 z M 33 26 L 38 26 L 38 36 L 33 36 L 33 26 z M 9 27 L 14 27 L 14 36 L 9 36 L 9 27 z M 15 37 L 20 37 L 20 48 L 15 48 L 15 37 z M 27 37 L 32 37 L 32 44 L 27 44 L 27 37 z M 39 37 L 44 37 L 44 55 L 39 55 L 39 37 z M 51 37 L 56 37 L 56 49 L 51 49 L 51 37 z "
                    transform="translate(0,988.36219)"
                  ></path>
                </g>
              </g>
              <g
                id="SvgjsG6872"
                featurekey="nameLeftFeature-0"
                transform="matrix(2.380952248797973,0,0,2.380952248797973,107.66666561543842,8.476189491039436)"
                fill="#ffffff"
              >
                <path d="M12 9.84 l-1.82 0 c-0.1 -2.22 -1.94 -2.92 -3.56 -2.92 c-1.22 0 -3.28 0.34 -3.28 2.52 c0 1.22 0.86 1.62 1.7 1.82 l4.1 0.94 c1.86 0.44 3.26 1.56 3.26 3.84 c0 3.4 -3.16 4.34 -5.62 4.34 c-2.66 0 -3.7 -0.8 -4.34 -1.38 c-1.22 -1.1 -1.46 -2.3 -1.46 -3.64 l1.82 0 c0 2.6 2.12 3.36 3.96 3.36 c1.4 0 3.76 -0.36 3.76 -2.42 c0 -1.5 -0.7 -1.98 -3.06 -2.54 l-2.94 -0.68 c-0.94 -0.22 -3.06 -0.88 -3.06 -3.38 c0 -2.24 1.46 -4.44 4.94 -4.44 c5.02 0 5.52 3 5.6 4.58 z M13.62 7.359999999999999 l0 -1.72 l11.66 0 l0 1.72 l-4.86 0 l0 12.64 l-1.94 0 l0 -12.64 l-4.86 0 z M35.1 15.82 l-5.76 0 l-1.5 4.18 l-2 0 l5.4 -14.36 l2.2 0 l5.2 14.36 l-2.12 0 z M29.94 14.1 l4.46 0 l-2.12 -6.32 l-0.04 0 z M50.900000000000006 9.84 l-1.82 0 c-0.1 -2.22 -1.94 -2.92 -3.56 -2.92 c-1.22 0 -3.28 0.34 -3.28 2.52 c0 1.22 0.86 1.62 1.7 1.82 l4.1 0.94 c1.86 0.44 3.26 1.56 3.26 3.84 c0 3.4 -3.16 4.34 -5.62 4.34 c-2.66 0 -3.7 -0.8 -4.34 -1.38 c-1.22 -1.1 -1.46 -2.3 -1.46 -3.64 l1.82 0 c0 2.6 2.12 3.36 3.96 3.36 c1.4 0 3.76 -0.36 3.76 -2.42 c0 -1.5 -0.7 -1.98 -3.06 -2.54 l-2.94 -0.68 c-0.94 -0.22 -3.06 -0.88 -3.06 -3.38 c0 -2.24 1.46 -4.44 4.94 -4.44 c5.02 0 5.52 3 5.6 4.58 z M63.22000000000001 11.58 l0 -5.94 l1.94 0 l0 14.36 l-1.94 0 l0 -6.7 l-7.5 0 l0 6.7 l-1.94 0 l0 -14.36 l1.94 0 l0 5.94 l7.5 0 z M74.32000000000001 14.219999999999999 l0 5.78 l-1.94 0 l0 -5.78 l-5.42 -8.58 l2.26 0 l4.12 6.9 l4.12 -6.9 l2.28 0 z"></path>
              </g>
              <g
                id="SvgjsG6873"
                featurekey="nameRightFeature-0"
                transform="matrix(2.5069638482380037,0,0,2.5069638482380037,303.29805079192494,6.860723035239927)"
                fill="#ffffff"
              >
                <path d="M7.64 14.219999999999999 l0 5.78 l-1.94 0 l0 -5.78 l-5.42 -8.58 l2.26 0 l4.12 6.9 l4.12 -6.9 l2.28 0 z"></path>
              </g>
            </svg>